# xmcd CD database file
#
# Track frame offsets:
#	150
#	16337
#	30641
#	43368
#	56846
#	73747
#	87157
#	100688
#	115144
#	130996
#	146686
#	161489
#	174864
#	192121
#
# Disc length: 2816 seconds
#
# Revision: 0
# Processed by: cddbd v1.5.1PL2 Copyright (c) Steve Scherf et al.
# Submitted via: CDex 1.50
#
DISCID=bd0afe0e
DTITLE=Mr. Music Country - Mr. Music Country
DYEAR=2006
DGENRE=Country
TTITLE0=Chris DeLoux - Don't It Make You Want To Dance
TTITLE1=Amber Digby - Cowboy Lovin' Night
TTITLE2=Larry Wright - She Changed My Way Of Drinking
TTITLE3=Wenche Hartmann - Games People Play
TTITLE4=Mike Siler - Eleven Roses
TTITLE5=Gary Campbell - A Heart You'll Have To Face
TTITLE6=Crea Beal - In Texas
TTITLE7=Bobby Flores - Keeper Of My Heart
TTITLE8=Dave Jorgenson - Gettin' Drunk Again
TTITLE9=Kim Novas - I'm Tired Of Being Something
TTITLE10=Frank Rose - Tennessee Rain
TTITLE11=Paul Mateki - God Loves You So Do I
TTITLE12=The Wrights with Alan Jackson - Leave A Light On
TTITLE13=Direks Bentley - Gonna Get There Someday
EXTD=YEAR: 2006
EXTT0=
EXTT1=
EXTT2=
EXTT3=
EXTT4=
EXTT5=
EXTT6=
EXTT7=
EXTT8=
EXTT9=
EXTT10=
EXTT11=
EXTT12=
EXTT13=
PLAYORDER=
